# xmcd CD database file
#
# Track frame offsets:
#	150
#	15451
#	36535
#	57348
#	77119
#	90990
#	103545
#	118376
#	133837
#	173703
#	194250
#	207026
#	227635
#
# Disc length: 3338 seconds
#
# Revision: 0
# Processed by: cddbd v1.5.2PL0 Copyright (c) Steve Scherf et al.
# Submitted via: CDex 1.51
#
DISCID=ab0d080d
DTITLE=Johnny Russo - Swingin' Happy
DYEAR=1900
DGENRE=Jazz
TTITLE0=Lot Of Living To Do
TTITLE1=Just One Of Those Things
TTITLE2=I Hear A New Samba
TTITLE3=Bluebird From The Sky
TTITLE4=Chinatown
TTITLE5=On The Sunny Side Of The Street
TTITLE6=Home Again
TTITLE7=Hip Hop, Hop Hip
TTITLE8=Stardust
TTITLE9=Spanish Medley
TTITLE10=The Way You Look Tonight
TTITLE11=Princess Lament
TTITLE12=C'est Magnifique
EXTD=
EXTT0=
EXTT1=
EXTT2=
EXTT3=
EXTT4=
EXTT5=
EXTT6=
EXTT7=
EXTT8=
EXTT9=
EXTT10=
EXTT11=
EXTT12=
PLAYORDER=
